<svg xmlns="http://www.w3.org/2000/svg" xmlns:xlink="http://www.w3.org/1999/xlink" width="500" zoomAndPan="magnify" viewBox="0 0 375 374.999991" height="500" preserveAspectRatio="xMidYMid meet" version="1.0"><defs><filter x="0%" y="0%" width="100%" height="100%" id="893ee926bc"><feColorMatrix values="0 0 0 0 1 0 0 0 0 1 0 0 0 0 1 0 0 0 1 0" color-interpolation-filters="sRGB"/></filter><g/><mask id="b3d62243da"><g filter="url(#893ee926bc)"><rect x="-37.5" width="450" fill="#000000" y="-37.499999" height="449.999989" fill-opacity="0.84"/></g></mask><clipPath id="77315f692c"><path d="M 0.714844 0.640625 L 9.917969 0.640625 L 9.917969 9.84375 L 0.714844 9.84375 Z M 0.714844 0.640625 " clip-rule="nonzero"/></clipPath><clipPath id="493d184818"><path d="M 5.316406 0.640625 C 2.777344 0.640625 0.714844 2.699219 0.714844 5.242188 C 0.714844 7.78125 2.777344 9.84375 5.316406 9.84375 C 7.859375 9.84375 9.917969 7.78125 9.917969 5.242188 C 9.917969 2.699219 7.859375 0.640625 5.316406 0.640625 Z M 5.316406 0.640625 " clip-rule="nonzero"/></clipPath><clipPath id="3317d22b49"><path d="M 0.714844 0.640625 L 9.917969 0.640625 L 9.917969 9.84375 L 0.714844 9.84375 Z M 0.714844 0.640625 " clip-rule="nonzero"/></clipPath><clipPath id="eaf887f490"><path d="M 5.316406 0.640625 C 2.777344 0.640625 0.714844 2.699219 0.714844 5.242188 C 0.714844 7.78125 2.777344 9.84375 5.316406 9.84375 C 7.859375 9.84375 9.917969 7.78125 9.917969 5.242188 C 9.917969 2.699219 7.859375 0.640625 5.316406 0.640625 Z M 5.316406 0.640625 " clip-rule="nonzero"/></clipPath><clipPath id="6f893bd2bb"><rect x="0" width="10" y="0" height="10"/></clipPath><clipPath id="d34878275b"><rect x="0" width="10" y="0" height="10"/></clipPath></defs><g mask="url(#b3d62243da)"><g transform="matrix(1, 0, 0, 1, 243, 143)"><g clip-path="url(#d34878275b)"><g clip-path="url(#77315f692c)"><g clip-path="url(#493d184818)"><g transform="matrix(1, 0, 0, 1, 0.000000000000028422, 0)"><g clip-path="url(#6f893bd2bb)"><g clip-path="url(#3317d22b49)"><g clip-path="url(#eaf887f490)"><path fill="#e87a5d" d="M 0.714844 0.640625 L 9.917969 0.640625 L 9.917969 9.84375 L 0.714844 9.84375 Z M 0.714844 0.640625 " fill-opacity="1" fill-rule="nonzero"/></g></g></g></g></g></g></g></g></g><g fill="#333333" fill-opacity="1"><g transform="translate(51.087893, 183.641282)"><g><path d="M 29.84375 -25.484375 L 29.84375 -24.765625 C 29.03125 -24.742188 28.410156 -24.65625 27.984375 -24.5 C 27.566406 -24.34375 27.285156 -24.050781 27.140625 -23.625 C 26.992188 -23.207031 26.921875 -22.554688 26.921875 -21.671875 L 26.921875 -3.8125 C 26.921875 -2.945312 26.992188 -2.296875 27.140625 -1.859375 C 27.285156 -1.429688 27.566406 -1.144531 27.984375 -1 C 28.410156 -0.863281 29.03125 -0.769531 29.84375 -0.71875 L 29.84375 0 C 29.289062 -0.0507812 28.597656 -0.0820312 27.765625 -0.09375 C 26.941406 -0.101562 26.109375 -0.109375 25.265625 -0.109375 C 24.335938 -0.109375 23.460938 -0.101562 22.640625 -0.09375 C 21.828125 -0.0820312 21.164062 -0.0507812 20.65625 0 L 20.65625 -0.71875 C 21.476562 -0.769531 22.097656 -0.863281 22.515625 -1 C 22.929688 -1.144531 23.210938 -1.429688 23.359375 -1.859375 C 23.503906 -2.296875 23.578125 -2.945312 23.578125 -3.8125 L 23.578125 -23.609375 L 23.71875 -23.515625 L 14.90625 0.1875 L 14.328125 0.1875 L 5.25 -23.1875 L 5.25 -4.171875 C 5.25 -3.304688 5.328125 -2.628906 5.484375 -2.140625 C 5.640625 -1.648438 5.953125 -1.300781 6.421875 -1.09375 C 6.890625 -0.894531 7.59375 -0.769531 8.53125 -0.71875 L 8.53125 0 C 8.101562 -0.0507812 7.539062 -0.0820312 6.84375 -0.09375 C 6.144531 -0.101562 5.484375 -0.109375 4.859375 -0.109375 C 4.253906 -0.109375 3.644531 -0.101562 3.03125 -0.09375 C 2.425781 -0.0820312 1.921875 -0.0507812 1.515625 0 L 1.515625 -0.71875 C 2.328125 -0.769531 2.941406 -0.894531 3.359375 -1.09375 C 3.785156 -1.300781 4.066406 -1.648438 4.203125 -2.140625 C 4.347656 -2.628906 4.421875 -3.304688 4.421875 -4.171875 L 4.421875 -21.671875 C 4.421875 -22.554688 4.347656 -23.207031 4.203125 -23.625 C 4.066406 -24.050781 3.785156 -24.34375 3.359375 -24.5 C 2.941406 -24.65625 2.328125 -24.742188 1.515625 -24.765625 L 1.515625 -25.484375 C 1.921875 -25.460938 2.425781 -25.4375 3.03125 -25.40625 C 3.644531 -25.382812 4.253906 -25.375 4.859375 -25.375 C 5.390625 -25.375 5.9375 -25.382812 6.5 -25.40625 C 7.0625 -25.4375 7.535156 -25.460938 7.921875 -25.484375 L 16.09375 -3.953125 L 15.484375 -3.671875 L 23.578125 -25.375 C 23.867188 -25.375 24.148438 -25.375 24.421875 -25.375 C 24.703125 -25.375 24.984375 -25.375 25.265625 -25.375 C 26.109375 -25.375 26.941406 -25.382812 27.765625 -25.40625 C 28.597656 -25.4375 29.289062 -25.460938 29.84375 -25.484375 Z M 29.84375 -25.484375 "/></g></g></g><g fill="#333333" fill-opacity="1"><g transform="translate(82.443958, 183.641282)"><g><path d="M 11.625 -25.671875 L 20.40625 -3.03125 C 20.769531 -2.113281 21.175781 -1.503906 21.625 -1.203125 C 22.082031 -0.898438 22.503906 -0.738281 22.890625 -0.71875 L 22.890625 0 C 22.410156 -0.0507812 21.820312 -0.0820312 21.125 -0.09375 C 20.4375 -0.101562 19.742188 -0.109375 19.046875 -0.109375 C 18.109375 -0.109375 17.226562 -0.101562 16.40625 -0.09375 C 15.59375 -0.0820312 14.9375 -0.0507812 14.4375 0 L 14.4375 -0.71875 C 15.65625 -0.769531 16.429688 -0.976562 16.765625 -1.34375 C 17.109375 -1.71875 17.039062 -2.519531 16.5625 -3.75 L 9.859375 -21.640625 L 10.4375 -22.109375 L 4.171875 -5.828125 C 3.785156 -4.867188 3.554688 -4.054688 3.484375 -3.390625 C 3.421875 -2.734375 3.488281 -2.210938 3.6875 -1.828125 C 3.894531 -1.453125 4.242188 -1.175781 4.734375 -1 C 5.222656 -0.832031 5.84375 -0.738281 6.59375 -0.71875 L 6.59375 0 C 5.914062 -0.0507812 5.210938 -0.0820312 4.484375 -0.09375 C 3.753906 -0.101562 3.078125 -0.109375 2.453125 -0.109375 C 1.847656 -0.109375 1.332031 -0.101562 0.90625 -0.09375 C 0.488281 -0.0820312 0.101562 -0.0507812 -0.25 0 L -0.25 -0.71875 C 0.226562 -0.84375 0.71875 -1.125 1.21875 -1.5625 C 1.726562 -2.007812 2.1875 -2.773438 2.59375 -3.859375 L 11.046875 -25.671875 C 11.148438 -25.671875 11.25 -25.671875 11.34375 -25.671875 C 11.4375 -25.671875 11.53125 -25.671875 11.625 -25.671875 Z M 16.015625 -10.375 L 16.015625 -9.640625 L 5.296875 -9.640625 L 5.65625 -10.375 Z M 16.015625 -10.375 "/></g></g></g><g fill="#333333" fill-opacity="1"><g transform="translate(104.404002, 183.641282)"><g><path d="M 1.515625 -25.484375 C 2.015625 -25.460938 2.671875 -25.4375 3.484375 -25.40625 C 4.304688 -25.382812 5.113281 -25.375 5.90625 -25.375 C 7.03125 -25.375 8.109375 -25.382812 9.140625 -25.40625 C 10.171875 -25.4375 10.90625 -25.453125 11.34375 -25.453125 C 13.28125 -25.453125 14.890625 -25.175781 16.171875 -24.625 C 17.460938 -24.070312 18.425781 -23.320312 19.0625 -22.375 C 19.695312 -21.425781 20.015625 -20.363281 20.015625 -19.1875 C 20.015625 -18.46875 19.867188 -17.695312 19.578125 -16.875 C 19.296875 -16.0625 18.800781 -15.296875 18.09375 -14.578125 C 17.382812 -13.859375 16.414062 -13.265625 15.1875 -12.796875 C 13.96875 -12.328125 12.421875 -12.09375 10.546875 -12.09375 L 7.09375 -12.09375 L 7.09375 -12.8125 L 10.1875 -12.8125 C 11.894531 -12.8125 13.195312 -13.082031 14.09375 -13.625 C 14.988281 -14.164062 15.597656 -14.882812 15.921875 -15.78125 C 16.253906 -16.6875 16.421875 -17.691406 16.421875 -18.796875 C 16.421875 -20.691406 15.96875 -22.160156 15.0625 -23.203125 C 14.164062 -24.242188 12.625 -24.765625 10.4375 -24.765625 C 9.332031 -24.765625 8.613281 -24.5625 8.28125 -24.15625 C 7.945312 -23.75 7.78125 -22.921875 7.78125 -21.671875 L 7.78125 -3.8125 C 7.78125 -2.945312 7.847656 -2.296875 7.984375 -1.859375 C 8.128906 -1.429688 8.410156 -1.144531 8.828125 -1 C 9.253906 -0.863281 9.875 -0.769531 10.6875 -0.71875 L 10.6875 0 C 10.132812 -0.0507812 9.441406 -0.0820312 8.609375 -0.09375 C 7.785156 -0.101562 6.957031 -0.109375 6.125 -0.109375 C 5.1875 -0.109375 4.304688 -0.101562 3.484375 -0.09375 C 2.671875 -0.0820312 2.015625 -0.0507812 1.515625 0 L 1.515625 -0.71875 C 2.328125 -0.769531 2.941406 -0.863281 3.359375 -1 C 3.785156 -1.144531 4.066406 -1.429688 4.203125 -1.859375 C 4.347656 -2.296875 4.421875 -2.945312 4.421875 -3.8125 L 4.421875 -21.671875 C 4.421875 -22.554688 4.347656 -23.207031 4.203125 -23.625 C 4.066406 -24.050781 3.785156 -24.34375 3.359375 -24.5 C 2.941406 -24.65625 2.328125 -24.742188 1.515625 -24.765625 Z M 7.234375 -12.703125 C 8.535156 -12.660156 9.554688 -12.609375 10.296875 -12.546875 C 11.035156 -12.484375 11.640625 -12.425781 12.109375 -12.375 C 12.578125 -12.332031 13.03125 -12.273438 13.46875 -12.203125 C 15.070312 -11.941406 16.226562 -11.457031 16.9375 -10.75 C 17.644531 -10.039062 18.164062 -8.941406 18.5 -7.453125 L 19.40625 -3.78125 C 19.644531 -2.726562 19.890625 -1.96875 20.140625 -1.5 C 20.390625 -1.03125 20.78125 -0.804688 21.3125 -0.828125 C 21.71875 -0.847656 22.054688 -0.976562 22.328125 -1.21875 C 22.609375 -1.457031 22.90625 -1.785156 23.21875 -2.203125 L 23.765625 -1.796875 C 23.253906 -1.054688 22.726562 -0.488281 22.1875 -0.09375 C 21.65625 0.300781 20.894531 0.5 19.90625 0.5 C 19.019531 0.5 18.238281 0.238281 17.5625 -0.28125 C 16.894531 -0.8125 16.394531 -1.847656 16.0625 -3.390625 L 15.265625 -6.984375 C 15.046875 -8.015625 14.796875 -8.90625 14.515625 -9.65625 C 14.242188 -10.414062 13.863281 -11.007812 13.375 -11.4375 C 12.882812 -11.875 12.160156 -12.09375 11.203125 -12.09375 L 7.3125 -12.09375 Z M 7.234375 -12.703125 "/></g></g></g><g fill="#333333" fill-opacity="1"><g transform="translate(127.732049, 183.641282)"><g><path d="M 10.6875 -25.484375 L 10.6875 -24.765625 C 9.875 -24.742188 9.253906 -24.65625 8.828125 -24.5 C 8.410156 -24.34375 8.128906 -24.050781 7.984375 -23.625 C 7.847656 -23.207031 7.78125 -22.554688 7.78125 -21.671875 L 7.78125 -3.8125 C 7.78125 -2.945312 7.847656 -2.296875 7.984375 -1.859375 C 8.128906 -1.429688 8.410156 -1.144531 8.828125 -1 C 9.253906 -0.863281 9.875 -0.769531 10.6875 -0.71875 L 10.6875 0 C 10.132812 -0.0507812 9.441406 -0.0820312 8.609375 -0.09375 C 7.785156 -0.101562 6.957031 -0.109375 6.125 -0.109375 C 5.1875 -0.109375 4.304688 -0.101562 3.484375 -0.09375 C 2.671875 -0.0820312 2.015625 -0.0507812 1.515625 0 L 1.515625 -0.71875 C 2.328125 -0.769531 2.941406 -0.863281 3.359375 -1 C 3.785156 -1.144531 4.066406 -1.429688 4.203125 -1.859375 C 4.347656 -2.296875 4.421875 -2.945312 4.421875 -3.8125 L 4.421875 -21.671875 C 4.421875 -22.554688 4.347656 -23.207031 4.203125 -23.625 C 4.066406 -24.050781 3.785156 -24.34375 3.359375 -24.5 C 2.941406 -24.65625 2.328125 -24.742188 1.515625 -24.765625 L 1.515625 -25.484375 C 2.015625 -25.460938 2.671875 -25.4375 3.484375 -25.40625 C 4.304688 -25.382812 5.1875 -25.375 6.125 -25.375 C 6.957031 -25.375 7.785156 -25.382812 8.609375 -25.40625 C 9.441406 -25.4375 10.132812 -25.460938 10.6875 -25.484375 Z M 10.6875 -25.484375 "/></g></g></g><g fill="#333333" fill-opacity="1"><g transform="translate(139.936073, 183.641282)"><g><path d="M 11.625 -25.671875 L 20.40625 -3.03125 C 20.769531 -2.113281 21.175781 -1.503906 21.625 -1.203125 C 22.082031 -0.898438 22.503906 -0.738281 22.890625 -0.71875 L 22.890625 0 C 22.410156 -0.0507812 21.820312 -0.0820312 21.125 -0.09375 C 20.4375 -0.101562 19.742188 -0.109375 19.046875 -0.109375 C 18.109375 -0.109375 17.226562 -0.101562 16.40625 -0.09375 C 15.59375 -0.0820312 14.9375 -0.0507812 14.4375 0 L 14.4375 -0.71875 C 15.65625 -0.769531 16.429688 -0.976562 16.765625 -1.34375 C 17.109375 -1.71875 17.039062 -2.519531 16.5625 -3.75 L 9.859375 -21.640625 L 10.4375 -22.109375 L 4.171875 -5.828125 C 3.785156 -4.867188 3.554688 -4.054688 3.484375 -3.390625 C 3.421875 -2.734375 3.488281 -2.210938 3.6875 -1.828125 C 3.894531 -1.453125 4.242188 -1.175781 4.734375 -1 C 5.222656 -0.832031 5.84375 -0.738281 6.59375 -0.71875 L 6.59375 0 C 5.914062 -0.0507812 5.210938 -0.0820312 4.484375 -0.09375 C 3.753906 -0.101562 3.078125 -0.109375 2.453125 -0.109375 C 1.847656 -0.109375 1.332031 -0.101562 0.90625 -0.09375 C 0.488281 -0.0820312 0.101562 -0.0507812 -0.25 0 L -0.25 -0.71875 C 0.226562 -0.84375 0.71875 -1.125 1.21875 -1.5625 C 1.726562 -2.007812 2.1875 -2.773438 2.59375 -3.859375 L 11.046875 -25.671875 C 11.148438 -25.671875 11.25 -25.671875 11.34375 -25.671875 C 11.4375 -25.671875 11.53125 -25.671875 11.625 -25.671875 Z M 16.015625 -10.375 L 16.015625 -9.640625 L 5.296875 -9.640625 L 5.65625 -10.375 Z M 16.015625 -10.375 "/></g></g></g><g fill="#333333" fill-opacity="1"><g transform="translate(162.616122, 183.641282)"><g/></g></g><g fill="#333333" fill-opacity="1"><g transform="translate(171.580141, 183.641282)"><g><path d="M 10.6875 -25.484375 L 10.6875 -24.765625 C 9.875 -24.742188 9.253906 -24.65625 8.828125 -24.5 C 8.410156 -24.34375 8.128906 -24.050781 7.984375 -23.625 C 7.847656 -23.207031 7.78125 -22.554688 7.78125 -21.671875 L 7.78125 -3.8125 C 7.78125 -2.945312 7.847656 -2.296875 7.984375 -1.859375 C 8.128906 -1.429688 8.410156 -1.148438 8.828125 -1.015625 C 9.253906 -0.890625 9.875 -0.828125 10.6875 -0.828125 L 13.3125 -0.828125 C 14.445312 -0.828125 15.367188 -0.945312 16.078125 -1.1875 C 16.785156 -1.425781 17.347656 -1.800781 17.765625 -2.3125 C 18.179688 -2.832031 18.5 -3.523438 18.71875 -4.390625 C 18.9375 -5.253906 19.101562 -6.3125 19.21875 -7.5625 L 20.046875 -7.5625 C 19.972656 -6.8125 19.9375 -5.828125 19.9375 -4.609375 C 19.9375 -4.148438 19.953125 -3.492188 19.984375 -2.640625 C 20.023438 -1.796875 20.097656 -0.914062 20.203125 0 C 18.972656 -0.0507812 17.585938 -0.0820312 16.046875 -0.09375 C 14.515625 -0.101562 13.148438 -0.109375 11.953125 -0.109375 C 11.421875 -0.109375 10.738281 -0.109375 9.90625 -0.109375 C 9.082031 -0.109375 8.191406 -0.101562 7.234375 -0.09375 C 6.273438 -0.0820312 5.300781 -0.0664062 4.3125 -0.046875 C 3.332031 -0.0351562 2.398438 -0.0195312 1.515625 0 L 1.515625 -0.71875 C 2.328125 -0.769531 2.941406 -0.863281 3.359375 -1 C 3.785156 -1.144531 4.066406 -1.429688 4.203125 -1.859375 C 4.347656 -2.296875 4.421875 -2.945312 4.421875 -3.8125 L 4.421875 -21.671875 C 4.421875 -22.554688 4.347656 -23.207031 4.203125 -23.625 C 4.066406 -24.050781 3.785156 -24.34375 3.359375 -24.5 C 2.941406 -24.65625 2.328125 -24.742188 1.515625 -24.765625 L 1.515625 -25.484375 C 2.015625 -25.460938 2.671875 -25.4375 3.484375 -25.40625 C 4.304688 -25.382812 5.1875 -25.375 6.125 -25.375 C 6.957031 -25.375 7.785156 -25.382812 8.609375 -25.40625 C 9.441406 -25.4375 10.132812 -25.460938 10.6875 -25.484375 Z M 10.6875 -25.484375 "/></g></g></g><g fill="#333333" fill-opacity="1"><g transform="translate(192.748185, 183.641282)"><g><path d="M 23.578125 -25.484375 L 23.578125 -24.765625 C 22.765625 -24.742188 22.144531 -24.625 21.71875 -24.40625 C 21.300781 -24.1875 21.019531 -23.835938 20.875 -23.359375 C 20.726562 -22.878906 20.65625 -22.195312 20.65625 -21.3125 L 20.65625 -10.46875 C 20.65625 -8.789062 20.546875 -7.328125 20.328125 -6.078125 C 20.117188 -4.835938 19.738281 -3.757812 19.1875 -2.84375 C 18.582031 -1.832031 17.703125 -1.019531 16.546875 -0.40625 C 15.398438 0.195312 14.082031 0.5 12.59375 0.5 C 11.445312 0.5 10.347656 0.359375 9.296875 0.078125 C 8.253906 -0.191406 7.335938 -0.695312 6.546875 -1.4375 C 5.859375 -2.113281 5.3125 -2.820312 4.90625 -3.5625 C 4.507812 -4.3125 4.238281 -5.222656 4.09375 -6.296875 C 3.957031 -7.378906 3.890625 -8.738281 3.890625 -10.375 L 3.890625 -21.671875 C 3.890625 -22.554688 3.816406 -23.207031 3.671875 -23.625 C 3.523438 -24.050781 3.242188 -24.34375 2.828125 -24.5 C 2.410156 -24.65625 1.789062 -24.742188 0.96875 -24.765625 L 0.96875 -25.484375 C 1.476562 -25.460938 2.140625 -25.4375 2.953125 -25.40625 C 3.765625 -25.382812 4.640625 -25.375 5.578125 -25.375 C 6.421875 -25.375 7.253906 -25.382812 8.078125 -25.40625 C 8.910156 -25.4375 9.601562 -25.460938 10.15625 -25.484375 L 10.15625 -24.765625 C 9.332031 -24.742188 8.710938 -24.65625 8.296875 -24.5 C 7.878906 -24.34375 7.597656 -24.050781 7.453125 -23.625 C 7.304688 -23.207031 7.234375 -22.554688 7.234375 -21.671875 L 7.234375 -9.75 C 7.234375 -8.53125 7.289062 -7.375 7.40625 -6.28125 C 7.53125 -5.1875 7.78125 -4.222656 8.15625 -3.390625 C 8.53125 -2.566406 9.097656 -1.921875 9.859375 -1.453125 C 10.628906 -0.984375 11.648438 -0.75 12.921875 -0.75 C 14.742188 -0.75 16.148438 -1.148438 17.140625 -1.953125 C 18.140625 -2.765625 18.835938 -3.878906 19.234375 -5.296875 C 19.640625 -6.710938 19.84375 -8.304688 19.84375 -10.078125 L 19.84375 -21.3125 C 19.84375 -22.195312 19.738281 -22.878906 19.53125 -23.359375 C 19.320312 -23.835938 18.976562 -24.1875 18.5 -24.40625 C 18.019531 -24.625 17.375 -24.742188 16.5625 -24.765625 L 16.5625 -25.484375 C 16.988281 -25.460938 17.554688 -25.4375 18.265625 -25.40625 C 18.972656 -25.382812 19.628906 -25.375 20.234375 -25.375 C 20.859375 -25.375 21.472656 -25.382812 22.078125 -25.40625 C 22.691406 -25.4375 23.191406 -25.460938 23.578125 -25.484375 Z M 23.578125 -25.484375 "/></g></g></g><g fill="#333333" fill-opacity="1"><g transform="translate(217.084239, 183.641282)"><g><path d="M 13.359375 -25.984375 C 14.941406 -25.984375 16.242188 -25.75 17.265625 -25.28125 C 18.285156 -24.820312 19.191406 -24.28125 19.984375 -23.65625 C 20.460938 -23.289062 20.828125 -23.242188 21.078125 -23.515625 C 21.328125 -23.796875 21.5 -24.453125 21.59375 -25.484375 L 22.421875 -25.484375 C 22.378906 -24.597656 22.34375 -23.519531 22.3125 -22.25 C 22.289062 -20.976562 22.28125 -19.296875 22.28125 -17.203125 L 21.453125 -17.203125 C 21.285156 -18.234375 21.128906 -19.054688 20.984375 -19.671875 C 20.835938 -20.285156 20.660156 -20.804688 20.453125 -21.234375 C 20.253906 -21.671875 19.988281 -22.101562 19.65625 -22.53125 C 18.914062 -23.519531 17.976562 -24.234375 16.84375 -24.671875 C 15.71875 -25.117188 14.53125 -25.34375 13.28125 -25.34375 C 12.101562 -25.34375 11.039062 -25.046875 10.09375 -24.453125 C 9.144531 -23.867188 8.328125 -23.023438 7.640625 -21.921875 C 6.960938 -20.816406 6.4375 -19.484375 6.0625 -17.921875 C 5.695312 -16.367188 5.515625 -14.617188 5.515625 -12.671875 C 5.515625 -10.648438 5.71875 -8.863281 6.125 -7.3125 C 6.53125 -5.769531 7.097656 -4.472656 7.828125 -3.421875 C 8.554688 -2.367188 9.421875 -1.570312 10.421875 -1.03125 C 11.421875 -0.488281 12.492188 -0.21875 13.640625 -0.21875 C 14.722656 -0.21875 15.851562 -0.429688 17.03125 -0.859375 C 18.207031 -1.296875 19.128906 -1.992188 19.796875 -2.953125 C 20.328125 -3.648438 20.691406 -4.40625 20.890625 -5.21875 C 21.097656 -6.03125 21.285156 -7.171875 21.453125 -8.640625 L 22.28125 -8.640625 C 22.28125 -6.453125 22.289062 -4.691406 22.3125 -3.359375 C 22.34375 -2.035156 22.378906 -0.914062 22.421875 0 L 21.59375 0 C 21.5 -1.03125 21.335938 -1.675781 21.109375 -1.9375 C 20.878906 -2.207031 20.503906 -2.175781 19.984375 -1.84375 C 19.085938 -1.21875 18.140625 -0.671875 17.140625 -0.203125 C 16.148438 0.265625 14.875 0.5 13.3125 0.5 C 11.039062 0.5 9.046875 -0.015625 7.328125 -1.046875 C 5.609375 -2.078125 4.273438 -3.5625 3.328125 -5.5 C 2.378906 -7.445312 1.90625 -9.789062 1.90625 -12.53125 C 1.90625 -15.21875 2.394531 -17.566406 3.375 -19.578125 C 4.363281 -21.597656 5.71875 -23.171875 7.4375 -24.296875 C 9.15625 -25.421875 11.128906 -25.984375 13.359375 -25.984375 Z M 13.359375 -25.984375 "/></g></g></g><g fill="#333333" fill-opacity="1"><g transform="translate(241.852284, 183.641282)"><g><path d="M 10.6875 -25.484375 L 10.6875 -24.765625 C 9.875 -24.742188 9.253906 -24.65625 8.828125 -24.5 C 8.410156 -24.34375 8.128906 -24.050781 7.984375 -23.625 C 7.847656 -23.207031 7.78125 -22.554688 7.78125 -21.671875 L 7.78125 -3.8125 C 7.78125 -2.945312 7.847656 -2.296875 7.984375 -1.859375 C 8.128906 -1.429688 8.410156 -1.144531 8.828125 -1 C 9.253906 -0.863281 9.875 -0.769531 10.6875 -0.71875 L 10.6875 0 C 10.132812 -0.0507812 9.441406 -0.0820312 8.609375 -0.09375 C 7.785156 -0.101562 6.957031 -0.109375 6.125 -0.109375 C 5.1875 -0.109375 4.304688 -0.101562 3.484375 -0.09375 C 2.671875 -0.0820312 2.015625 -0.0507812 1.515625 0 L 1.515625 -0.71875 C 2.328125 -0.769531 2.941406 -0.863281 3.359375 -1 C 3.785156 -1.144531 4.066406 -1.429688 4.203125 -1.859375 C 4.347656 -2.296875 4.421875 -2.945312 4.421875 -3.8125 L 4.421875 -21.671875 C 4.421875 -22.554688 4.347656 -23.207031 4.203125 -23.625 C 4.066406 -24.050781 3.785156 -24.34375 3.359375 -24.5 C 2.941406 -24.65625 2.328125 -24.742188 1.515625 -24.765625 L 1.515625 -25.484375 C 2.015625 -25.460938 2.671875 -25.4375 3.484375 -25.40625 C 4.304688 -25.382812 5.1875 -25.375 6.125 -25.375 C 6.957031 -25.375 7.785156 -25.382812 8.609375 -25.40625 C 9.441406 -25.4375 10.132812 -25.460938 10.6875 -25.484375 Z M 10.6875 -25.484375 "/></g></g></g><g fill="#333333" fill-opacity="1"><g transform="translate(254.056309, 183.641282)"><g><path d="M 11.625 -25.671875 L 20.40625 -3.03125 C 20.769531 -2.113281 21.175781 -1.503906 21.625 -1.203125 C 22.082031 -0.898438 22.503906 -0.738281 22.890625 -0.71875 L 22.890625 0 C 22.410156 -0.0507812 21.820312 -0.0820312 21.125 -0.09375 C 20.4375 -0.101562 19.742188 -0.109375 19.046875 -0.109375 C 18.109375 -0.109375 17.226562 -0.101562 16.40625 -0.09375 C 15.59375 -0.0820312 14.9375 -0.0507812 14.4375 0 L 14.4375 -0.71875 C 15.65625 -0.769531 16.429688 -0.976562 16.765625 -1.34375 C 17.109375 -1.71875 17.039062 -2.519531 16.5625 -3.75 L 9.859375 -21.640625 L 10.4375 -22.109375 L 4.171875 -5.828125 C 3.785156 -4.867188 3.554688 -4.054688 3.484375 -3.390625 C 3.421875 -2.734375 3.488281 -2.210938 3.6875 -1.828125 C 3.894531 -1.453125 4.242188 -1.175781 4.734375 -1 C 5.222656 -0.832031 5.84375 -0.738281 6.59375 -0.71875 L 6.59375 0 C 5.914062 -0.0507812 5.210938 -0.0820312 4.484375 -0.09375 C 3.753906 -0.101562 3.078125 -0.109375 2.453125 -0.109375 C 1.847656 -0.109375 1.332031 -0.101562 0.90625 -0.09375 C 0.488281 -0.0820312 0.101562 -0.0507812 -0.25 0 L -0.25 -0.71875 C 0.226562 -0.84375 0.71875 -1.125 1.21875 -1.5625 C 1.726562 -2.007812 2.1875 -2.773438 2.59375 -3.859375 L 11.046875 -25.671875 C 11.148438 -25.671875 11.25 -25.671875 11.34375 -25.671875 C 11.4375 -25.671875 11.53125 -25.671875 11.625 -25.671875 Z M 16.015625 -10.375 L 16.015625 -9.640625 L 5.296875 -9.640625 L 5.65625 -10.375 Z M 16.015625 -10.375 "/></g></g></g><g fill="#333333" fill-opacity="1"><g transform="translate(276.016352, 183.641282)"><g><path d="M 24.125 -25.484375 L 24.125 -24.765625 C 23.300781 -24.742188 22.679688 -24.625 22.265625 -24.40625 C 21.847656 -24.1875 21.566406 -23.835938 21.421875 -23.359375 C 21.273438 -22.878906 21.203125 -22.195312 21.203125 -21.3125 L 21.203125 0.1875 C 21.054688 0.1875 20.914062 0.1875 20.78125 0.1875 C 20.65625 0.1875 20.519531 0.1875 20.375 0.1875 L 5.25 -23.1875 L 5.25 -4.171875 C 5.25 -3.304688 5.328125 -2.628906 5.484375 -2.140625 C 5.640625 -1.648438 5.953125 -1.300781 6.421875 -1.09375 C 6.890625 -0.894531 7.59375 -0.769531 8.53125 -0.71875 L 8.53125 0 C 8.101562 -0.0507812 7.539062 -0.0820312 6.84375 -0.09375 C 6.144531 -0.101562 5.484375 -0.109375 4.859375 -0.109375 C 4.253906 -0.109375 3.644531 -0.101562 3.03125 -0.09375 C 2.425781 -0.0820312 1.921875 -0.0507812 1.515625 0 L 1.515625 -0.71875 C 2.328125 -0.769531 2.941406 -0.894531 3.359375 -1.09375 C 3.785156 -1.300781 4.066406 -1.648438 4.203125 -2.140625 C 4.347656 -2.628906 4.421875 -3.304688 4.421875 -4.171875 L 4.421875 -21.671875 C 4.421875 -22.554688 4.347656 -23.207031 4.203125 -23.625 C 4.066406 -24.050781 3.785156 -24.34375 3.359375 -24.5 C 2.941406 -24.65625 2.328125 -24.742188 1.515625 -24.765625 L 1.515625 -25.484375 C 1.921875 -25.460938 2.425781 -25.4375 3.03125 -25.40625 C 3.644531 -25.382812 4.253906 -25.375 4.859375 -25.375 C 5.390625 -25.375 5.894531 -25.382812 6.375 -25.40625 C 6.851562 -25.4375 7.285156 -25.460938 7.671875 -25.484375 L 20.375 -5.90625 L 20.375 -21.3125 C 20.375 -22.195312 20.296875 -22.878906 20.140625 -23.359375 C 19.984375 -23.835938 19.671875 -24.1875 19.203125 -24.40625 C 18.734375 -24.625 18.03125 -24.742188 17.09375 -24.765625 L 17.09375 -25.484375 C 17.53125 -25.460938 18.101562 -25.4375 18.8125 -25.40625 C 19.519531 -25.382812 20.171875 -25.375 20.765625 -25.375 C 21.390625 -25.375 22.007812 -25.382812 22.625 -25.40625 C 23.238281 -25.4375 23.738281 -25.460938 24.125 -25.484375 Z M 24.125 -25.484375 "/></g></g></g><g fill="#333333" fill-opacity="1"><g transform="translate(301.216401, 183.641282)"><g><path d="M 11.625 -25.671875 L 20.40625 -3.03125 C 20.769531 -2.113281 21.175781 -1.503906 21.625 -1.203125 C 22.082031 -0.898438 22.503906 -0.738281 22.890625 -0.71875 L 22.890625 0 C 22.410156 -0.0507812 21.820312 -0.0820312 21.125 -0.09375 C 20.4375 -0.101562 19.742188 -0.109375 19.046875 -0.109375 C 18.109375 -0.109375 17.226562 -0.101562 16.40625 -0.09375 C 15.59375 -0.0820312 14.9375 -0.0507812 14.4375 0 L 14.4375 -0.71875 C 15.65625 -0.769531 16.429688 -0.976562 16.765625 -1.34375 C 17.109375 -1.71875 17.039062 -2.519531 16.5625 -3.75 L 9.859375 -21.640625 L 10.4375 -22.109375 L 4.171875 -5.828125 C 3.785156 -4.867188 3.554688 -4.054688 3.484375 -3.390625 C 3.421875 -2.734375 3.488281 -2.210938 3.6875 -1.828125 C 3.894531 -1.453125 4.242188 -1.175781 4.734375 -1 C 5.222656 -0.832031 5.84375 -0.738281 6.59375 -0.71875 L 6.59375 0 C 5.914062 -0.0507812 5.210938 -0.0820312 4.484375 -0.09375 C 3.753906 -0.101562 3.078125 -0.109375 2.453125 -0.109375 C 1.847656 -0.109375 1.332031 -0.101562 0.90625 -0.09375 C 0.488281 -0.0820312 0.101562 -0.0507812 -0.25 0 L -0.25 -0.71875 C 0.226562 -0.84375 0.71875 -1.125 1.21875 -1.5625 C 1.726562 -2.007812 2.1875 -2.773438 2.59375 -3.859375 L 11.046875 -25.671875 C 11.148438 -25.671875 11.25 -25.671875 11.34375 -25.671875 C 11.4375 -25.671875 11.53125 -25.671875 11.625 -25.671875 Z M 16.015625 -10.375 L 16.015625 -9.640625 L 5.296875 -9.640625 L 5.65625 -10.375 Z M 16.015625 -10.375 "/></g></g></g><g fill="#e87a5d" fill-opacity="1"><g transform="translate(87.099609, 222.358697)"><g><path d="M 15.25 -11.15625 L 12.015625 0 L 10.390625 0 L 7.796875 -8.96875 L 5.109375 0 L 3.484375 0.015625 L 0.375 -11.15625 L 1.921875 -11.15625 L 4.359375 -1.703125 L 7.046875 -11.15625 L 8.671875 -11.15625 L 11.234375 -1.734375 L 13.6875 -11.15625 Z M 15.25 -11.15625 "/></g></g></g><g fill="#e87a5d" fill-opacity="1"><g transform="translate(102.711855, 222.358697)"><g><path d="M 2.6875 -9.96875 L 2.6875 -6.234375 L 6.75 -6.234375 L 6.75 -5.046875 L 2.6875 -5.046875 L 2.6875 -1.203125 L 7.234375 -1.203125 L 7.234375 0 L 1.234375 0 L 1.234375 -11.171875 L 7.234375 -11.171875 L 7.234375 -9.96875 Z M 2.6875 -9.96875 "/></g></g></g><g fill="#e87a5d" fill-opacity="1"><g transform="translate(110.917887, 222.358697)"><g><path d="M 6.8125 -5.75 C 7.21875 -5.675781 7.585938 -5.503906 7.921875 -5.234375 C 8.265625 -4.972656 8.535156 -4.644531 8.734375 -4.25 C 8.929688 -3.851562 9.03125 -3.429688 9.03125 -2.984375 C 9.03125 -2.421875 8.882812 -1.910156 8.59375 -1.453125 C 8.300781 -1.003906 7.878906 -0.648438 7.328125 -0.390625 C 6.785156 -0.128906 6.140625 0 5.390625 0 L 1.234375 0 L 1.234375 -11.15625 L 5.234375 -11.15625 C 5.992188 -11.15625 6.640625 -11.03125 7.171875 -10.78125 C 7.703125 -10.53125 8.097656 -10.191406 8.359375 -9.765625 C 8.628906 -9.335938 8.765625 -8.851562 8.765625 -8.3125 C 8.765625 -7.65625 8.585938 -7.109375 8.234375 -6.671875 C 7.878906 -6.242188 7.40625 -5.9375 6.8125 -5.75 Z M 2.6875 -6.34375 L 5.140625 -6.34375 C 5.816406 -6.34375 6.34375 -6.5 6.71875 -6.8125 C 7.09375 -7.132812 7.28125 -7.578125 7.28125 -8.140625 C 7.28125 -8.703125 7.09375 -9.144531 6.71875 -9.46875 C 6.34375 -9.789062 5.804688 -9.953125 5.109375 -9.953125 L 2.6875 -9.953125 Z M 5.265625 -1.203125 C 5.992188 -1.203125 6.554688 -1.367188 6.953125 -1.703125 C 7.359375 -2.046875 7.5625 -2.523438 7.5625 -3.140625 C 7.5625 -3.753906 7.347656 -4.238281 6.921875 -4.59375 C 6.492188 -4.957031 5.925781 -5.140625 5.21875 -5.140625 L 2.6875 -5.140625 L 2.6875 -1.203125 Z M 5.265625 -1.203125 "/></g></g></g><g fill="#e87a5d" fill-opacity="1"><g transform="translate(120.723527, 222.358697)"><g/></g></g><g fill="#e87a5d" fill-opacity="1"><g transform="translate(124.994496, 222.358697)"><g><path d="M 9.796875 0 L 8.34375 -1.46875 C 7.789062 -0.90625 7.203125 -0.488281 6.578125 -0.21875 C 5.960938 0.0507812 5.269531 0.1875 4.5 0.1875 C 3.726562 0.1875 3.046875 0.0507812 2.453125 -0.21875 C 1.859375 -0.5 1.398438 -0.894531 1.078125 -1.40625 C 0.753906 -1.914062 0.59375 -2.515625 0.59375 -3.203125 C 0.59375 -3.984375 0.8125 -4.664062 1.25 -5.25 C 1.695312 -5.84375 2.351562 -6.3125 3.21875 -6.65625 C 2.875 -7.0625 2.625 -7.429688 2.46875 -7.765625 C 2.320312 -8.109375 2.25 -8.484375 2.25 -8.890625 C 2.25 -9.359375 2.367188 -9.78125 2.609375 -10.15625 C 2.847656 -10.539062 3.191406 -10.835938 3.640625 -11.046875 C 4.085938 -11.265625 4.609375 -11.375 5.203125 -11.375 C 5.773438 -11.375 6.273438 -11.257812 6.703125 -11.03125 C 7.128906 -10.8125 7.445312 -10.5 7.65625 -10.09375 C 7.875 -9.695312 7.972656 -9.253906 7.953125 -8.765625 L 6.5 -8.765625 C 6.507812 -9.203125 6.382812 -9.546875 6.125 -9.796875 C 5.875 -10.046875 5.546875 -10.171875 5.140625 -10.171875 C 4.710938 -10.171875 4.367188 -10.050781 4.109375 -9.8125 C 3.847656 -9.570312 3.71875 -9.265625 3.71875 -8.890625 C 3.71875 -8.578125 3.800781 -8.269531 3.96875 -7.96875 C 4.144531 -7.664062 4.441406 -7.296875 4.859375 -6.859375 L 8.1875 -3.515625 L 8.484375 -3.96875 L 9.5625 -5.796875 L 11.140625 -5.796875 L 9.828125 -3.515625 C 9.640625 -3.203125 9.425781 -2.867188 9.1875 -2.515625 L 11.703125 0 Z M 4.5 -1.0625 C 5.070312 -1.0625 5.585938 -1.171875 6.046875 -1.390625 C 6.515625 -1.617188 6.957031 -1.96875 7.375 -2.4375 L 4.09375 -5.734375 C 2.726562 -5.203125 2.046875 -4.375 2.046875 -3.25 C 2.046875 -2.613281 2.269531 -2.085938 2.71875 -1.671875 C 3.175781 -1.265625 3.769531 -1.0625 4.5 -1.0625 Z M 4.5 -1.0625 "/></g></g></g><g fill="#e87a5d" fill-opacity="1"><g transform="translate(136.815659, 222.358697)"><g/></g></g><g fill="#e87a5d" fill-opacity="1"><g transform="translate(141.086628, 222.358697)"><g><path d="M 9.6875 -7.921875 C 9.375 -8.566406 8.921875 -9.066406 8.328125 -9.421875 C 7.742188 -9.785156 7.0625 -9.96875 6.28125 -9.96875 C 5.507812 -9.96875 4.8125 -9.785156 4.1875 -9.421875 C 3.5625 -9.066406 3.066406 -8.554688 2.703125 -7.890625 C 2.347656 -7.222656 2.171875 -6.453125 2.171875 -5.578125 C 2.171875 -4.703125 2.347656 -3.929688 2.703125 -3.265625 C 3.066406 -2.609375 3.5625 -2.101562 4.1875 -1.75 C 4.8125 -1.394531 5.507812 -1.21875 6.28125 -1.21875 C 7.375 -1.21875 8.269531 -1.539062 8.96875 -2.1875 C 9.675781 -2.84375 10.085938 -3.722656 10.203125 -4.828125 L 5.765625 -4.828125 L 5.765625 -6.015625 L 11.765625 -6.015625 L 11.765625 -4.890625 C 11.671875 -3.972656 11.378906 -3.132812 10.890625 -2.375 C 10.398438 -1.613281 9.753906 -1.007812 8.953125 -0.5625 C 8.160156 -0.125 7.269531 0.09375 6.28125 0.09375 C 5.25 0.09375 4.304688 -0.144531 3.453125 -0.625 C 2.597656 -1.113281 1.921875 -1.789062 1.421875 -2.65625 C 0.929688 -3.519531 0.6875 -4.492188 0.6875 -5.578125 C 0.6875 -6.671875 0.929688 -7.648438 1.421875 -8.515625 C 1.921875 -9.390625 2.597656 -10.066406 3.453125 -10.546875 C 4.304688 -11.035156 5.25 -11.28125 6.28125 -11.28125 C 7.46875 -11.28125 8.515625 -10.984375 9.421875 -10.390625 C 10.335938 -9.804688 11.003906 -8.984375 11.421875 -7.921875 Z M 9.6875 -7.921875 "/></g></g></g><g fill="#e87a5d" fill-opacity="1"><g transform="translate(153.531642, 222.358697)"><g><path d="M 7.109375 0 L 4.453125 -4.5625 L 2.6875 -4.5625 L 2.6875 0 L 1.234375 0 L 1.234375 -11.15625 L 4.828125 -11.15625 C 5.671875 -11.15625 6.382812 -11.007812 6.96875 -10.71875 C 7.550781 -10.425781 7.984375 -10.035156 8.265625 -9.546875 C 8.554688 -9.054688 8.703125 -8.5 8.703125 -7.875 C 8.703125 -7.101562 8.476562 -6.421875 8.03125 -5.828125 C 7.59375 -5.242188 6.929688 -4.859375 6.046875 -4.671875 L 8.84375 0 Z M 2.6875 -5.734375 L 4.828125 -5.734375 C 5.617188 -5.734375 6.210938 -5.925781 6.609375 -6.3125 C 7.003906 -6.695312 7.203125 -7.21875 7.203125 -7.875 C 7.203125 -8.53125 7.003906 -9.039062 6.609375 -9.40625 C 6.222656 -9.769531 5.628906 -9.953125 4.828125 -9.953125 L 2.6875 -9.953125 Z M 2.6875 -5.734375 "/></g></g></g><g fill="#e87a5d" fill-opacity="1"><g transform="translate(163.257311, 222.358697)"><g><path d="M 7.828125 -2.484375 L 2.953125 -2.484375 L 2.0625 0 L 0.53125 0 L 4.5625 -11.09375 L 6.234375 -11.09375 L 10.25 0 L 8.71875 0 Z M 7.40625 -3.65625 L 5.390625 -9.296875 L 3.375 -3.65625 Z M 6.96875 -13.5625 L 3.546875 -11.734375 L 3.546875 -12.828125 L 6.96875 -14.828125 Z M 6.96875 -13.5625 "/></g></g></g><g fill="#e87a5d" fill-opacity="1"><g transform="translate(174.038721, 222.358697)"><g><path d="M 7.53125 -11.15625 L 7.53125 -9.96875 L 2.6875 -9.96875 L 2.6875 -6.203125 L 6.625 -6.203125 L 6.625 -5.03125 L 2.6875 -5.03125 L 2.6875 0 L 1.234375 0 L 1.234375 -11.15625 Z M 7.53125 -11.15625 "/></g></g></g><g fill="#e87a5d" fill-opacity="1"><g transform="translate(182.100785, 222.358697)"><g><path d="M 2.6875 -11.15625 L 2.6875 0 L 1.234375 0 L 1.234375 -11.15625 Z M 2.6875 -11.15625 "/></g></g></g><g fill="#e87a5d" fill-opacity="1"><g transform="translate(186.035836, 222.358697)"><g><path d="M 0.6875 -5.578125 C 0.6875 -6.671875 0.929688 -7.648438 1.421875 -8.515625 C 1.910156 -9.390625 2.578125 -10.070312 3.421875 -10.5625 C 4.273438 -11.050781 5.21875 -11.296875 6.25 -11.296875 C 7.46875 -11.296875 8.53125 -11 9.4375 -10.40625 C 10.34375 -9.820312 11.003906 -8.992188 11.421875 -7.921875 L 9.6875 -7.921875 C 9.375 -8.585938 8.925781 -9.101562 8.34375 -9.46875 C 7.757812 -9.832031 7.0625 -10.015625 6.25 -10.015625 C 5.476562 -10.015625 4.78125 -9.832031 4.15625 -9.46875 C 3.539062 -9.101562 3.054688 -8.585938 2.703125 -7.921875 C 2.347656 -7.253906 2.171875 -6.472656 2.171875 -5.578125 C 2.171875 -4.691406 2.347656 -3.914062 2.703125 -3.25 C 3.054688 -2.582031 3.539062 -2.066406 4.15625 -1.703125 C 4.78125 -1.347656 5.476562 -1.171875 6.25 -1.171875 C 7.0625 -1.171875 7.757812 -1.347656 8.34375 -1.703125 C 8.925781 -2.054688 9.375 -2.570312 9.6875 -3.25 L 11.421875 -3.25 C 11.003906 -2.175781 10.34375 -1.347656 9.4375 -0.765625 C 8.53125 -0.191406 7.46875 0.09375 6.25 0.09375 C 5.21875 0.09375 4.273438 -0.144531 3.421875 -0.625 C 2.578125 -1.113281 1.910156 -1.789062 1.421875 -2.65625 C 0.929688 -3.519531 0.6875 -4.492188 0.6875 -5.578125 Z M 0.6875 -5.578125 "/></g></g></g><g fill="#e87a5d" fill-opacity="1"><g transform="translate(198.384869, 222.358697)"><g><path d="M 7.828125 -2.484375 L 2.953125 -2.484375 L 2.0625 0 L 0.53125 0 L 4.5625 -11.09375 L 6.234375 -11.09375 L 10.25 0 L 8.71875 0 Z M 7.40625 -3.65625 L 5.390625 -9.296875 L 3.375 -3.65625 Z M 7.40625 -3.65625 "/></g></g></g><g fill="#e87a5d" fill-opacity="1"><g transform="translate(209.166278, 222.358697)"><g/></g></g><g fill="#e87a5d" fill-opacity="1"><g transform="translate(213.437247, 222.358697)"><g><path d="M 4.703125 -11.15625 C 5.921875 -11.15625 6.972656 -10.925781 7.859375 -10.46875 C 8.753906 -10.019531 9.4375 -9.375 9.90625 -8.53125 C 10.382812 -7.6875 10.625 -6.691406 10.625 -5.546875 C 10.625 -4.410156 10.382812 -3.421875 9.90625 -2.578125 C 9.4375 -1.742188 8.753906 -1.101562 7.859375 -0.65625 C 6.972656 -0.21875 5.921875 0 4.703125 0 L 1.234375 0 L 1.234375 -11.15625 Z M 4.703125 -1.203125 C 6.140625 -1.203125 7.238281 -1.582031 8 -2.34375 C 8.757812 -3.101562 9.140625 -4.171875 9.140625 -5.546875 C 9.140625 -6.929688 8.753906 -8.015625 7.984375 -8.796875 C 7.222656 -9.578125 6.128906 -9.96875 4.703125 -9.96875 L 2.6875 -9.96875 L 2.6875 -1.203125 Z M 4.703125 -1.203125 "/></g></g></g><g fill="#e87a5d" fill-opacity="1"><g transform="translate(224.746527, 222.358697)"><g><path d="M 2.6875 -9.96875 L 2.6875 -6.234375 L 6.75 -6.234375 L 6.75 -5.046875 L 2.6875 -5.046875 L 2.6875 -1.203125 L 7.234375 -1.203125 L 7.234375 0 L 1.234375 0 L 1.234375 -11.171875 L 7.234375 -11.171875 L 7.234375 -9.96875 Z M 2.6875 -9.96875 "/></g></g></g><g fill="#e87a5d" fill-opacity="1"><g transform="translate(232.952558, 222.358697)"><g><path d="M 4.765625 0.109375 C 4.023438 0.109375 3.363281 -0.0195312 2.78125 -0.28125 C 2.207031 -0.539062 1.753906 -0.898438 1.421875 -1.359375 C 1.085938 -1.828125 0.914062 -2.363281 0.90625 -2.96875 L 2.46875 -2.96875 C 2.519531 -2.445312 2.734375 -2.007812 3.109375 -1.65625 C 3.492188 -1.300781 4.046875 -1.125 4.765625 -1.125 C 5.460938 -1.125 6.007812 -1.296875 6.40625 -1.640625 C 6.8125 -1.984375 7.015625 -2.425781 7.015625 -2.96875 C 7.015625 -3.394531 6.894531 -3.742188 6.65625 -4.015625 C 6.414062 -4.285156 6.117188 -4.488281 5.765625 -4.625 C 5.421875 -4.757812 4.953125 -4.910156 4.359375 -5.078125 C 3.617188 -5.265625 3.023438 -5.453125 2.578125 -5.640625 C 2.140625 -5.835938 1.757812 -6.140625 1.4375 -6.546875 C 1.125 -6.960938 0.96875 -7.515625 0.96875 -8.203125 C 0.96875 -8.816406 1.125 -9.359375 1.4375 -9.828125 C 1.75 -10.296875 2.179688 -10.65625 2.734375 -10.90625 C 3.296875 -11.164062 3.941406 -11.296875 4.671875 -11.296875 C 5.710938 -11.296875 6.566406 -11.035156 7.234375 -10.515625 C 7.898438 -9.992188 8.28125 -9.300781 8.375 -8.4375 L 6.765625 -8.4375 C 6.710938 -8.863281 6.488281 -9.238281 6.09375 -9.5625 C 5.695312 -9.882812 5.175781 -10.046875 4.53125 -10.046875 C 3.914062 -10.046875 3.414062 -9.890625 3.03125 -9.578125 C 2.65625 -9.265625 2.46875 -8.820312 2.46875 -8.25 C 2.46875 -7.84375 2.582031 -7.507812 2.8125 -7.25 C 3.039062 -7 3.320312 -6.804688 3.65625 -6.671875 C 3.988281 -6.546875 4.460938 -6.394531 5.078125 -6.21875 C 5.804688 -6.019531 6.394531 -5.820312 6.84375 -5.625 C 7.289062 -5.425781 7.675781 -5.117188 8 -4.703125 C 8.320312 -4.296875 8.484375 -3.742188 8.484375 -3.046875 C 8.484375 -2.492188 8.335938 -1.976562 8.046875 -1.5 C 7.753906 -1.019531 7.328125 -0.628906 6.765625 -0.328125 C 6.203125 -0.0351562 5.535156 0.109375 4.765625 0.109375 Z M 4.765625 0.109375 "/></g></g></g><g fill="#e87a5d" fill-opacity="1"><g transform="translate(242.342297, 222.358697)"><g><path d="M 2.6875 -11.15625 L 2.6875 0 L 1.234375 0 L 1.234375 -11.15625 Z M 2.6875 -11.15625 "/></g></g></g><g fill="#e87a5d" fill-opacity="1"><g transform="translate(246.277348, 222.358697)"><g><path d="M 9.6875 -7.921875 C 9.375 -8.566406 8.921875 -9.066406 8.328125 -9.421875 C 7.742188 -9.785156 7.0625 -9.96875 6.28125 -9.96875 C 5.507812 -9.96875 4.8125 -9.785156 4.1875 -9.421875 C 3.5625 -9.066406 3.066406 -8.554688 2.703125 -7.890625 C 2.347656 -7.222656 2.171875 -6.453125 2.171875 -5.578125 C 2.171875 -4.703125 2.347656 -3.929688 2.703125 -3.265625 C 3.066406 -2.609375 3.5625 -2.101562 4.1875 -1.75 C 4.8125 -1.394531 5.507812 -1.21875 6.28125 -1.21875 C 7.375 -1.21875 8.269531 -1.539062 8.96875 -2.1875 C 9.675781 -2.84375 10.085938 -3.722656 10.203125 -4.828125 L 5.765625 -4.828125 L 5.765625 -6.015625 L 11.765625 -6.015625 L 11.765625 -4.890625 C 11.671875 -3.972656 11.378906 -3.132812 10.890625 -2.375 C 10.398438 -1.613281 9.753906 -1.007812 8.953125 -0.5625 C 8.160156 -0.125 7.269531 0.09375 6.28125 0.09375 C 5.25 0.09375 4.304688 -0.144531 3.453125 -0.625 C 2.597656 -1.113281 1.921875 -1.789062 1.421875 -2.65625 C 0.929688 -3.519531 0.6875 -4.492188 0.6875 -5.578125 C 0.6875 -6.671875 0.929688 -7.648438 1.421875 -8.515625 C 1.921875 -9.390625 2.597656 -10.066406 3.453125 -10.546875 C 4.304688 -11.035156 5.25 -11.28125 6.28125 -11.28125 C 7.46875 -11.28125 8.515625 -10.984375 9.421875 -10.390625 C 10.335938 -9.804688 11.003906 -8.984375 11.421875 -7.921875 Z M 9.6875 -7.921875 "/></g></g></g><g fill="#e87a5d" fill-opacity="1"><g transform="translate(258.722362, 222.358697)"><g><path d="M 10 0 L 8.546875 0 L 2.6875 -8.875 L 2.6875 0 L 1.234375 0 L 1.234375 -11.171875 L 2.6875 -11.171875 L 8.546875 -2.296875 L 8.546875 -11.171875 L 10 -11.171875 Z M 10 0 "/></g></g></g><g fill="#e87a5d" fill-opacity="1"><g transform="translate(269.967658, 222.358697)"><g><path d="M 2.6875 -9.96875 L 2.6875 -6.234375 L 6.75 -6.234375 L 6.75 -5.046875 L 2.6875 -5.046875 L 2.6875 -1.203125 L 7.234375 -1.203125 L 7.234375 0 L 1.234375 0 L 1.234375 -11.171875 L 7.234375 -11.171875 L 7.234375 -9.96875 Z M 2.6875 -9.96875 "/></g></g></g><g fill="#e87a5d" fill-opacity="1"><g transform="translate(278.173689, 222.358697)"><g><path d="M 7.109375 0 L 4.453125 -4.5625 L 2.6875 -4.5625 L 2.6875 0 L 1.234375 0 L 1.234375 -11.15625 L 4.828125 -11.15625 C 5.671875 -11.15625 6.382812 -11.007812 6.96875 -10.71875 C 7.550781 -10.425781 7.984375 -10.035156 8.265625 -9.546875 C 8.554688 -9.054688 8.703125 -8.5 8.703125 -7.875 C 8.703125 -7.101562 8.476562 -6.421875 8.03125 -5.828125 C 7.59375 -5.242188 6.929688 -4.859375 6.046875 -4.671875 L 8.84375 0 Z M 2.6875 -5.734375 L 4.828125 -5.734375 C 5.617188 -5.734375 6.210938 -5.925781 6.609375 -6.3125 C 7.003906 -6.695312 7.203125 -7.21875 7.203125 -7.875 C 7.203125 -8.53125 7.003906 -9.039062 6.609375 -9.40625 C 6.222656 -9.769531 5.628906 -9.953125 4.828125 -9.953125 L 2.6875 -9.953125 Z M 2.6875 -5.734375 "/></g></g></g></svg>